<svg width="187" height="98" viewBox="0 0 187 98" fill="none" xmlns="http://www.w3.org/2000/svg">
<line x1="1" y1="2" x2="0.999996" y2="97" stroke="#010101" stroke-width="2"/>
<path d="M13.2266 15.3401H16.1328L28.7422 45.387L41.375 15.3401H44.2578L29.8438 49.4651H27.6406L13.2266 15.3401ZM12.3359 15.3401H14.8906L15.1953 34.5588V49.4651H12.3359V15.3401ZM42.6406 15.3401H45.1953V49.4651H42.3125V34.5588L42.6406 15.3401ZM54.9828 15.3401V49.4651H52.1V15.3401H54.9828ZM73.4891 17.3792L61.6766 49.4651H58.6766L71.5672 15.3401H73.6531L73.4891 17.3792ZM84.2234 49.4651L72.3875 17.3792L72.2234 15.3401H74.3094L87.2234 49.4651H84.2234ZM82.1141 37.4182V39.9026H63.9969V37.4182H82.1141ZM89.1594 13.4651V16.1604C89.1594 17.1135 89.0266 18.051 88.7609 18.9729C88.4953 19.8948 88.1125 20.762 87.6125 21.5745C87.1281 22.3713 86.55 23.0823 85.8781 23.7073L84.2141 22.4885C84.9328 21.5042 85.4719 20.5276 85.8313 19.5588C86.1906 18.5745 86.3703 17.4651 86.3703 16.2307V13.4651H89.1594ZM112.564 41.0745C112.564 40.137 112.408 39.301 112.095 38.5667C111.783 37.8323 111.267 37.176 110.548 36.5979C109.845 36.0042 108.892 35.4573 107.689 34.9573C106.502 34.4417 105.017 33.9338 103.236 33.4338C101.533 32.9495 99.9938 32.4182 98.6188 31.8401C97.2438 31.262 96.0641 30.5979 95.0797 29.8479C94.1109 29.0979 93.3688 28.2229 92.8531 27.2229C92.3375 26.2073 92.0797 25.0276 92.0797 23.6838C92.0797 22.3713 92.3609 21.176 92.9234 20.0979C93.4859 19.0198 94.275 18.0901 95.2906 17.3088C96.3219 16.5276 97.5328 15.926 98.9234 15.5042C100.33 15.0823 101.869 14.8713 103.541 14.8713C105.931 14.8713 107.994 15.3245 109.728 16.2307C111.478 17.137 112.83 18.3635 113.783 19.9104C114.752 21.4417 115.236 23.1604 115.236 25.0667H112.353C112.353 23.5823 112.002 22.262 111.298 21.1057C110.611 19.9338 109.611 19.0198 108.298 18.3635C107.002 17.6917 105.416 17.3557 103.541 17.3557C101.666 17.3557 100.088 17.6448 98.8063 18.2229C97.5406 18.7854 96.5797 19.5432 95.9234 20.4963C95.2828 21.4338 94.9625 22.4807 94.9625 23.637C94.9625 24.4495 95.1188 25.1995 95.4313 25.887C95.7438 26.5588 96.2516 27.1917 96.9547 27.7854C97.6734 28.3635 98.6188 28.9104 99.7906 29.426C100.963 29.926 102.408 30.4026 104.127 30.8557C105.939 31.3557 107.548 31.9104 108.955 32.5198C110.361 33.1292 111.548 33.8323 112.517 34.6292C113.486 35.4104 114.22 36.3245 114.72 37.3713C115.22 38.4182 115.47 39.637 115.47 41.0276C115.47 42.4182 115.173 43.6682 114.58 44.7776C114.002 45.8713 113.181 46.801 112.119 47.5667C111.072 48.3323 109.83 48.9182 108.392 49.3245C106.97 49.7307 105.416 49.9338 103.728 49.9338C102.213 49.9338 100.705 49.7385 99.2047 49.3479C97.7047 48.9573 96.3297 48.3557 95.0797 47.5432C93.8453 46.7151 92.8531 45.6526 92.1031 44.3557C91.3688 43.0588 91.0016 41.512 91.0016 39.7151H93.8609C93.8609 41.1526 94.15 42.3635 94.7281 43.3479C95.3063 44.3323 96.0719 45.1292 97.025 45.7385C97.9938 46.3479 99.0563 46.7932 100.213 47.0745C101.384 47.3401 102.556 47.4729 103.728 47.4729C105.525 47.4729 107.08 47.2073 108.392 46.676C109.72 46.1448 110.744 45.4026 111.463 44.4495C112.197 43.4807 112.564 42.3557 112.564 41.0745Z" fill="black"/>
<path d="M155.891 62.875H166.977C169.336 62.875 171.383 63.2578 173.117 64.0234C174.852 64.7891 176.188 65.9219 177.125 67.4219C178.078 68.9062 178.555 70.7344 178.555 72.9062C178.555 74.5156 178.211 75.9766 177.523 77.2891C176.852 78.6016 175.922 79.7031 174.734 80.5938C173.547 81.4688 172.172 82.0703 170.609 82.3984L169.602 82.7734H157.766L157.719 80.3125H167.633C169.414 80.3125 170.898 79.9688 172.086 79.2812C173.273 78.5938 174.164 77.6875 174.758 76.5625C175.367 75.4219 175.672 74.2031 175.672 72.9062C175.672 71.3594 175.336 70.0234 174.664 68.8984C174.008 67.7578 173.031 66.8828 171.734 66.2734C170.438 65.6641 168.852 65.3594 166.977 65.3594H158.773V97H155.891V62.875ZM176.961 97L168.125 81.7422L171.219 81.7188L180.031 96.6953V97H176.961Z" fill="black"/>
<path d="M152.244 94.5391V97H133.048V94.5391H152.244ZM133.916 62.875V97H131.033V62.875H133.916ZM149.853 78.1797V80.6406H133.048V78.1797H149.853ZM152.127 62.875V65.3594H133.048V62.875H152.127Z" fill="black"/>
<path d="M124.714 62.875V97H121.808L102.191 67.8438V97H99.3079V62.875H102.191L121.855 92.0312V62.875H124.714Z" fill="black"/>
<path d="M71.1218 62.875H82.2078C84.5671 62.875 86.614 63.2578 88.3484 64.0234C90.0828 64.7891 91.4187 65.9219 92.3562 67.4219C93.3093 68.9062 93.7859 70.7344 93.7859 72.9062C93.7859 74.5156 93.4421 75.9766 92.7546 77.2891C92.0828 78.6016 91.1531 79.7031 89.9656 80.5938C88.7781 81.4688 87.4031 82.0703 85.8406 82.3984L84.8328 82.7734H72.9968L72.9499 80.3125H82.864C84.6453 80.3125 86.1296 79.9688 87.3171 79.2812C88.5046 78.5938 89.3953 77.6875 89.989 76.5625C90.5984 75.4219 90.9031 74.2031 90.9031 72.9062C90.9031 71.3594 90.5671 70.0234 89.8953 68.8984C89.239 67.7578 88.2624 66.8828 86.9656 66.2734C85.6687 65.6641 84.0828 65.3594 82.2078 65.3594H74.0046V97H71.1218V62.875ZM92.1921 97L83.3562 81.7422L86.4499 81.7188L95.2624 96.6953V97H92.1921Z" fill="black"/>
<path d="M33.5938 86.3594H36.4766C36.2422 88.6562 35.6094 90.6406 34.5781 92.3125C33.5469 93.9688 32.1406 95.2422 30.3594 96.1328C28.5781 97.0234 26.4297 97.4688 23.9141 97.4688C21.9766 97.4688 20.2188 97.1016 18.6406 96.3672C17.0781 95.6328 15.7344 94.5938 14.6094 93.25C13.4844 91.8906 12.6172 90.2656 12.0078 88.375C11.3984 86.4844 11.0938 84.3828 11.0938 82.0703V77.8047C11.0938 75.4922 11.3984 73.3984 12.0078 71.5234C12.6172 69.6328 13.4922 68.0078 14.6328 66.6484C15.7734 65.2891 17.1406 64.2422 18.7344 63.5078C20.3281 62.7734 22.125 62.4062 24.125 62.4062C26.5469 62.4062 28.6406 62.8516 30.4062 63.7422C32.1719 64.6172 33.5625 65.8828 34.5781 67.5391C35.6094 69.1953 36.2422 71.1953 36.4766 73.5391H33.5938C33.375 71.6953 32.8906 70.1328 32.1406 68.8516C31.3906 67.5703 30.3516 66.5938 29.0234 65.9219C27.7109 65.2344 26.0781 64.8906 24.125 64.8906C22.5312 64.8906 21.1094 65.1953 19.8594 65.8047C18.6094 66.4141 17.5469 67.2891 16.6719 68.4297C15.7969 69.5547 15.125 70.9062 14.6562 72.4844C14.2031 74.0625 13.9766 75.8203 13.9766 77.7578V82.0703C13.9766 83.9453 14.1953 85.6719 14.6328 87.25C15.0703 88.8281 15.7109 90.1953 16.5547 91.3516C17.4141 92.5078 18.4609 93.4062 19.6953 94.0469C20.9297 94.6875 22.3359 95.0078 23.9141 95.0078C25.9297 95.0078 27.6094 94.6875 28.9531 94.0469C30.3125 93.3906 31.3672 92.4219 32.1172 91.1406C32.8672 89.8594 33.3594 88.2656 33.5938 86.3594Z" fill="black"/>
<line y1="1" x2="180" y2="1" stroke="black" stroke-width="2"/>
<path d="M61.6337 73.4097L64.2801 75.2174L58.8809 78.9056H48.0823L42.6831 75.2174L45.3295 73.4097" stroke="black" stroke-width="1.3" stroke-miterlimit="22.9256" stroke-linejoin="round"/>
<path d="M58.8808 78.9053V96.4097H48.0823V78.9053" stroke="black" stroke-width="1.3" stroke-miterlimit="22.9256" stroke-linejoin="round"/>
<path fill-rule="evenodd" clip-rule="evenodd" d="M58.8809 78.9054L64.2801 75.2173V92.7217L58.8809 96.4099V78.9054Z" stroke="black" stroke-width="1.3" stroke-miterlimit="22.9256" stroke-linejoin="round"/>
<path fill-rule="evenodd" clip-rule="evenodd" d="M48.0823 78.9054L42.6831 75.2173V92.7217L48.0823 96.4099V78.9054Z" stroke="black" stroke-width="1.3" stroke-miterlimit="22.9256" stroke-linejoin="round"/>
<path fill-rule="evenodd" clip-rule="evenodd" d="M53.4816 68.9219C57.9839 68.9219 61.6337 69.9058 61.6337 71.1196V74.2373C61.6337 75.4511 57.9839 76.435 53.4816 76.435C48.9793 76.435 45.3295 75.4511 45.3295 74.2373V71.1196C45.3295 69.9058 48.9793 68.9219 53.4816 68.9219Z" stroke="black" stroke-width="1.3" stroke-miterlimit="22.9256" stroke-linejoin="round"/>
<path d="M55.7829 69.0104C59.1645 69.2782 61.6337 70.1209 61.6337 71.1192C61.6337 72.333 57.9839 73.3169 53.4816 73.3169C48.9793 73.3169 45.3295 72.333 45.3295 71.1192C45.3295 70.1095 47.8551 69.259 51.2959 69.0015" stroke="black" stroke-width="1.3" stroke-miterlimit="22.9256" stroke-linejoin="round"/>
<path fill-rule="evenodd" clip-rule="evenodd" d="M53.0382 63.635C55.3047 66.7985 55.7912 68.0592 55.7912 69.4923C55.7912 70.9255 54.6497 72.1862 53.4213 72.1862C52.1929 72.1862 50.981 71.008 51.197 69.5912C51.5059 67.5648 54.0341 66.6502 53.0382 63.635Z" fill="white" stroke="black" stroke-width="1.3" stroke-miterlimit="22.9256" stroke-linejoin="round"/>
<path d="M52.4658 71.7739V73.2831" stroke="black" stroke-width="1.3" stroke-miterlimit="22.9256"/>
<path d="M54.4974 71.7739V73.2831" stroke="black" stroke-width="1.3" stroke-miterlimit="22.9256"/>
</svg>
