<svg width="33" height="42" viewBox="0 0 33 42" fill="none" xmlns="http://www.w3.org/2000/svg">
<path d="M16.9395 1.19629C25.2237 1.19629 31.9395 7.91202 31.9395 16.1963C31.9395 25.8793 27.2389 35.1165 18.917 39.8711C18.2904 40.2291 17.765 40.5131 17.3701 40.7051C17.1857 40.7947 17.0427 40.8566 16.9395 40.8965C16.8362 40.8566 16.6932 40.7947 16.5088 40.7051C16.1139 40.5131 15.5885 40.2291 14.9619 39.8711C6.64001 35.1165 1.93945 25.8793 1.93945 16.1963C1.93945 7.91202 8.65518 1.19629 16.9395 1.19629Z" fill="black" stroke="white" stroke-width="2"/>
<g clip-path="url(#clip0_375_100)">
<path d="M21.9388 14L12.7721 23.1667L8.60547 19M25.2721 17.3333L19.0221 23.5833L17.7721 22.3333" stroke="white" stroke-width="2" stroke-linecap="round" stroke-linejoin="round"/>
</g>
<defs>
<clipPath id="clip0_375_100">
<rect width="20" height="20" fill="white" transform="translate(6.93945 9)"/>
</clipPath>
</defs>
</svg>
