<svg width="33" height="42" viewBox="0 0 33 42" fill="none" xmlns="http://www.w3.org/2000/svg">
<path d="M16.9395 1.19629C25.2237 1.19629 31.9395 7.91202 31.9395 16.1963C31.9395 25.8793 27.2389 35.1165 18.917 39.8711C18.2904 40.2291 17.765 40.5131 17.3701 40.7051C17.1857 40.7947 17.0427 40.8566 16.9395 40.8965C16.8362 40.8566 16.6932 40.7947 16.5088 40.7051C16.1139 40.5131 15.5885 40.2291 14.9619 39.8711C6.64001 35.1165 1.93945 25.8793 1.93945 16.1963C1.93945 7.91202 8.65518 1.19629 16.9395 1.19629Z" fill="black" stroke="white" stroke-width="2"/>
<path d="M16.9395 9.91411V15.2474M8.98745 15.259H24.8923M21.1706 9.91411C21.5019 9.9118 21.8272 10.0021 22.11 10.1749C22.3927 10.3477 22.6215 10.596 22.7706 10.8919L24.7528 14.8732C24.8754 15.1192 24.9393 15.3903 24.9395 15.6652V24.1363C24.9395 24.6078 24.7522 25.06 24.4188 25.3934C24.0854 25.7268 23.6332 25.9141 23.1617 25.9141H10.7172C10.2457 25.9141 9.79355 25.7268 9.46015 25.3934C9.12675 25.06 8.93945 24.6078 8.93945 24.1363V15.667C8.93947 15.3911 9.00368 15.1191 9.12701 14.8723L11.1172 10.8919C11.2656 10.5974 11.4931 10.3499 11.7741 10.1772C12.055 10.0046 12.3785 9.91346 12.7083 9.91411H21.1706Z" stroke="white" stroke-width="2" stroke-linecap="round" stroke-linejoin="round"/>
</svg>
